HIERARCHY
ROOT Hips
{
	OFFSET 0.000000 0.000000 0.000000 
	CHANNELS 6 Xposition Yposition Zposition Zrotation Yrotation Xrotation
	JOINT LeftUpLeg
	{
		OFFSET 1.363060 -1.794630 0.839290 
		CHANNELS 3 Zrotation Yrotation Xrotation
		JOINT LeftLeg
		{
			OFFSET 2.448110 -6.726130 0.000000 
			CHANNELS 3 Zrotation Yrotation Xrotation
			JOINT LeftFoot
			{
				OFFSET 2.562200 -7.039590 0.000000 
				CHANNELS 3 Zrotation Yrotation Xrotation
				JOINT LeftToeBase
				{
					OFFSET 0.157640 -0.433110 2.322550 
					CHANNELS 3 Zrotation Yrotation Xrotation
					End Site
					{
						OFFSET 0.000000 0.000000 0.000000 
					}
				}
			}
		}
	}
	JOINT RightUpLeg
	{
		OFFSET -1.305520 -1.794630 0.839290 
		CHANNELS 3 Zrotation Yrotation Xrotation
		JOINT RightLeg
		{
			OFFSET -2.542530 -6.985550 0.000000 
			CHANNELS 3 Zrotation Yrotation Xrotation
			JOINT RightFoot
			{
				OFFSET -2.568260 -7.056230 0.000000 
				CHANNELS 3 Zrotation Yrotation Xrotation
				JOINT RightToeBase
				{
					OFFSET -0.164730 -0.452590 2.363150 
					CHANNELS 3 Zrotation Yrotation Xrotation
					End Site
					{
						OFFSET 0.000000 0.000000 0.000000 
					}
				}
			}
		}
	}
	JOINT Spine
	{
		OFFSET 0.028270 2.035590 -0.193380 
		CHANNELS 3 Zrotation Yrotation Xrotation
		JOINT Spine1
		{
			OFFSET 0.056720 2.048850 -0.042750 
			CHANNELS 3 Zrotation Yrotation Xrotation
			JOINT Neck1
			{
				OFFSET -0.054170 1.746240 0.172020 
				CHANNELS 3 Zrotation Yrotation Xrotation
				JOINT Head
				{
					OFFSET 0.104070 1.761360 -0.123970 
					CHANNELS 3 Zrotation Yrotation Xrotation
					End Site
					{
						OFFSET 0.000000 0.000000 0.000000 
					}
				}
			}
			JOINT LeftArm
			{
				OFFSET 3.362410 1.200890 -0.311210 
				CHANNELS 3 Zrotation Yrotation Xrotation
				JOINT LeftForeArm
				{
					OFFSET 4.983000 -0.000000 -0.000000 
					CHANNELS 3 Zrotation Yrotation Xrotation
					JOINT LeftHand
					{
						OFFSET 3.483560 -0.000000 -0.000000 
						CHANNELS 3 Zrotation Yrotation Xrotation
						JOINT LeftHandIndex1
						{
							OFFSET 0.715260 -0.000000 -0.000000 
							CHANNELS 3 Zrotation Yrotation Xrotation
							End Site
							{
								OFFSET 0.000000 0.000000 0.000000 
							}
						}
					}
				}
			}
			JOINT RightArm
			{
				OFFSET -3.136600 1.374050 -0.404650 
				CHANNELS 3 Zrotation Yrotation Xrotation
				JOINT RightForeArm
				{
					OFFSET -5.241900 -0.000000 -0.000000 
					CHANNELS 3 Zrotation Yrotation Xrotation
					JOINT RightHand
					{
						OFFSET -3.444170 -0.000000 -0.000000 
						CHANNELS 3 Zrotation Yrotation Xrotation
						JOINT RightHandIndex1
						{
							OFFSET -0.622530 -0.000000 -0.000000 
							CHANNELS 3 Zrotation Yrotation Xrotation
							End Site
							{
								OFFSET 0.000000 0.000000 0.000000 
							}
						}
					}
				}
			}
		}
	}
}
MOTION
Frames: 12
Frame Time: 0.041667
-22.948881 16.313071 0.193176 -12.352941 73.484670 1.432534 -24.859189 2.994770 -3.097314 3.113723 12.760810 38.969383 1.869770 -15.025130 2.648948 0.340400 3.749200 10.372200 8.895493 13.146631 -42.703054 -14.730956 -22.417796 74.864524 0.499937 -4.301551 -6.481657 -1.367200 7.400300 -20.906900 1.110921 -3.690657 -2.190636 2.493217 -2.495847 4.323572 2.517576 2.493984 4.698070 4.361100 2.251100 -1.203200 -71.577968 0.822491 39.246292 42.101586 -51.669724 -22.372024 -0.997973 -0.407159 -12.662200 -7.125000 0.000000 0.000000 91.004624 -9.414416 19.921843 -117.983893 56.832284 -86.723737 1.122031 0.057448 -61.245408 7.125000 0.000000 0.000000 
-22.653539 16.215654 0.383260 -11.908897 73.790108 1.729279 -24.579714 3.326759 -0.629141 2.660705 12.048841 36.877992 1.885037 -15.245765 2.709714 0.450500 4.306100 11.939400 7.625291 12.919668 -44.449566 -13.940940 -22.326116 72.583300 0.563695 -4.672667 -6.467746 -1.447500 7.605400 -21.521700 1.163609 -4.269410 -2.229004 2.753965 -2.841944 4.194790 2.469697 3.321682 4.591778 4.196400 2.642800 -1.328200 -71.757387 -2.098202 37.594360 43.236864 -51.930912 -23.257541 -1.018698 -0.297710 -11.531883 -7.125000 0.000000 0.000000 91.297353 -9.426974 21.318878 -120.590017 55.975025 -88.686339 1.125464 -0.006085 -58.706503 7.125000 0.000000 0.000000 
-22.352122 16.113157 0.571135 -11.463361 74.083023 2.023037 -24.308992 3.685890 1.843405 2.229717 11.317943 34.773027 1.888338 -15.281995 2.723972 0.515000 4.599700 12.770200 6.468510 12.599081 -45.944700 -13.049422 -22.147272 70.009671 0.647997 -5.104716 -6.270924 -1.528200 7.805100 -22.123700 1.221356 -4.861614 -2.270040 3.042283 -3.195131 4.044864 2.223228 4.186094 4.544261 4.321100 3.052600 -1.594300 -71.910146 -4.733117 36.057826 44.194587 -52.118816 -24.034241 -1.032658 -0.192237 -10.549442 -7.125000 0.000000 0.000000 91.473880 -9.198309 22.705236 -122.798198 55.167125 -90.345228 1.116287 -0.075349 -55.642518 7.125000 0.000000 0.000000 
-22.043084 16.005800 0.755806 -11.048228 74.346098 2.285019 -24.057673 4.069522 4.328622 1.823420 10.571026 32.658841 1.880600 -15.081407 2.604906 0.489800 4.487500 12.452300 5.428531 12.208984 -47.178825 -12.093230 -21.881493 67.237657 0.732994 -5.494988 -5.856426 -1.609800 8.001000 -22.717000 1.287653 -5.460385 -2.315769 3.362568 -3.551641 3.900480 2.110972 5.113466 4.486143 4.066600 3.480100 -1.669700 -72.028884 -7.021721 34.711055 45.013073 -52.265756 -24.723112 -1.042302 -0.094870 -9.816273 -7.125000 0.000000 0.000000 91.523610 -8.690725 24.087871 -124.616205 54.440953 -91.703180 1.091358 -0.149331 -52.118048 7.125000 0.000000 0.000000 
-21.724879 15.894136 0.936281 -10.691558 74.556314 2.494631 -23.841633 4.466186 6.823460 1.443994 9.815001 30.549452 1.857174 -14.587359 2.333563 0.371200 3.913300 10.832900 4.506961 11.764930 -48.159556 -11.114396 -21.536187 64.376178 0.799148 -5.760642 -5.211637 -1.701200 8.213800 -23.365500 1.363838 -6.062042 -2.366158 3.727059 -3.910572 3.753409 1.937599 6.094846 4.459847 3.774900 3.927100 -1.695400 -72.130180 -8.895933 33.618428 45.723932 -52.398797 -25.337851 -1.049708 -0.009594 -9.359674 -7.125000 0.000000 0.000000 91.429646 -7.889781 25.472547 -126.071559 53.816792 -92.780831 1.048524 -0.224872 -48.237045 7.125000 0.000000 0.000000 
-21.396734 15.779047 1.111675 -10.408892 74.695924 2.647271 -23.681462 4.859650 9.306997 1.094995 9.063342 28.478868 1.806588 -13.747664 1.965180 0.204100 2.909200 8.026000 3.706206 11.270696 -48.909884 -10.159431 -21.128371 61.549656 0.834949 -5.867968 -4.358437 -1.818500 8.477300 -24.173400 1.449447 -6.655445 -2.420913 4.123713 -4.264893 3.610233 1.696920 7.121506 4.465428 3.450700 4.390700 -1.665300 -72.222583 -10.314655 32.829571 46.336725 -52.530977 -25.874148 -1.056507 0.060767 -9.116130 -7.125000 0.000000 0.000000 91.207504 -6.791207 26.862784 -127.223932 53.292197 -93.624542 0.987409 -0.297301 -44.138182 7.125000 0.000000 0.000000 
-21.057985 15.661198 1.281657 -10.204631 74.752697 2.752841 -23.597037 5.236253 11.728073 0.783757 8.341715 26.515617 1.712213 -12.533251 1.613639 0.062400 1.612100 4.434800 3.029184 10.726039 -49.468876 -9.278172 -20.686210 58.897568 0.840974 -5.844240 -3.355801 -1.984200 8.833100 -25.274600 1.542587 -7.224084 -2.478848 4.532452 -4.603876 3.480126 1.392358 8.176048 4.498209 3.104300 4.864400 -1.580700 -72.326130 -11.256378 32.377620 46.835479 -52.663124 -26.306334 -1.062763 0.117867 -8.944672 -7.125000 0.000000 0.000000 90.888539 -5.405060 28.270045 -128.147186 52.848936 -94.292180 0.909673 -0.361513 -39.974836 7.125000 0.000000 0.000000 
-20.709295 15.542243 1.446337 -10.072749 74.721767 2.834958 -23.602469 5.593430 13.994073 0.524249 7.693730 24.775779 1.558526 -10.959576 1.413972 0.001600 0.261300 0.718100 2.478405 10.130470 -49.887281 -8.520829 -20.248587 56.570927 0.823932 -5.739091 -2.308478 -2.216000 9.302200 -26.745300 1.639588 -7.748406 -2.537447 4.920932 -4.914516 3.376725 1.036358 9.233874 4.548873 2.749700 5.338400 -1.451600 -72.466121 -11.724410 32.280313 47.181779 -52.785405 -26.591096 -1.066859 0.166744 -8.668400 -7.125000 0.000000 0.000000 90.520568 -3.750824 29.722038 -128.924813 52.455587 -94.847989 0.819152 -0.414060 -35.876362 7.125000 0.000000 0.000000 
-20.351881 15.423731 1.606158 -10.001569 74.605910 2.922766 -23.701117 5.939696 15.967444 0.338484 7.186069 23.435726 1.340210 -9.092814 1.451810 0.019700 -0.906900 -2.492700 2.052296 9.488738 -50.221581 -7.933417 -19.861663 54.721026 0.792676 -5.593297 -1.355185 -2.521000 9.876100 -28.576300 1.735481 -8.207537 -2.592919 5.248929 -5.183095 3.317511 0.646428 10.265232 4.605172 2.399000 5.800500 -1.293300 -72.668402 -11.745503 32.542429 47.326995 -52.882211 -26.680790 -1.066681 0.212548 -8.153677 -7.125000 0.000000 0.000000 90.159263 -1.853959 31.266771 -129.624291 52.081397 -95.342600 0.721073 -0.454247 -31.911294 7.125000 0.000000 0.000000 
-19.987728 15.308090 1.762002 -9.977989 74.410816 3.042658 -23.886598 6.291929 17.476600 0.255967 6.905851 22.725602 1.067229 -7.041811 1.726729 0.072900 -1.741800 -4.792600 1.744734 8.813228 -50.526507 -7.551510 -19.570701 53.478295 0.752313 -5.413343 -0.648096 -2.894800 10.522700 -30.686600 1.825562 -8.581834 -2.641163 5.486672 -5.397159 3.317773 0.241444 11.239478 4.652302 2.061700 6.237300 -1.123900 -72.961533 -11.364251 33.154805 47.224330 -52.935870 -26.534385 -1.060429 0.259007 -7.353581 -7.125000 0.000000 0.000000 89.846875 0.260431 32.970824 -130.288073 51.703900 -95.805924 0.620512 -0.483512 -28.072843 7.125000 0.000000 0.000000 
-19.619710 15.196868 1.914091 -9.988250 74.147957 3.211979 -24.145497 6.665302 18.352590 0.309341 6.939822 22.882216 0.763567 -4.945997 2.166433 0.117300 -2.208200 -6.081300 1.544922 8.119189 -50.844660 -7.394567 -19.408933 52.927228 0.700344 -5.162217 -0.324819 -3.310600 11.181600 -32.894900 1.906988 -8.855726 -2.679677 5.633495 -5.548976 3.375428 -0.162539 12.130002 4.672010 1.742100 6.637100 -0.962200 -73.380170 -10.632354 34.089689 46.843806 -52.930193 -26.131943 -1.048087 0.306677 -6.346274 -7.125000 0.000000 0.000000 89.598835 2.568686 34.906677 -130.920296 51.319019 -96.239124 0.521306 -0.503956 -24.291170 7.125000 0.000000 0.000000 
-19.251140 15.091278 2.062314 -10.024704 73.828430 3.421470 -24.463278 7.071866 18.499424 0.529205 7.338684 24.063500 0.459916 -2.957050 2.667065 0.135400 -2.371500 -6.533400 1.444298 7.417554 -51.190130 -7.462283 -19.387252 53.083670 0.627082 -4.778548 -0.477264 -3.717800 11.775100 -34.940800 1.976937 -9.017866 -2.705873 5.693376 -5.632698 3.478569 -0.554210 12.915442 4.642966 1.440700 6.990400 -0.826500 -73.947039 -9.608317 35.305961 46.167206 -52.846191 -25.469621 -1.031631 0.351826 -5.308893 -7.125000 0.000000 0.000000 89.416637 5.055836 37.135663 -131.491209 50.939326 -96.617699 0.425970 -0.518079 -20.465964 7.125000 0.000000 0.000000 
